<mxfile host="Electron" agent="Mozilla/5.0 (X11; Linux x86_64) AppleWebKit/537.36 (KHTML, like Gecko) draw.io/26.0.4 Chrome/128.0.6613.186 Electron/32.2.5 Safari/537.36" version="26.0.4">
  <diagram name="Page-1" id="DNivu8JH4DU6mMSlox9g">
    <mxGraphModel dx="1114" dy="2298" grid="1" gridSize="10" guides="1" tooltips="1" connect="1" arrows="1" fold="1" page="1" pageScale="1" pageWidth="850" pageHeight="1100" math="0" shadow="0">
      <root>
        <mxCell id="0" />
        <mxCell id="1" parent="0" />
        <mxCell id="g4kFXE-WU6tNxtJEIpBs-6" style="edgeStyle=orthogonalEdgeStyle;rounded=0;orthogonalLoop=1;jettySize=auto;html=1;" edge="1" parent="1" source="g4kFXE-WU6tNxtJEIpBs-3" target="g4kFXE-WU6tNxtJEIpBs-5">
          <mxGeometry relative="1" as="geometry" />
        </mxCell>
        <mxCell id="g4kFXE-WU6tNxtJEIpBs-21" style="edgeStyle=orthogonalEdgeStyle;rounded=0;orthogonalLoop=1;jettySize=auto;html=1;" edge="1" parent="1" source="g4kFXE-WU6tNxtJEIpBs-3" target="g4kFXE-WU6tNxtJEIpBs-20">
          <mxGeometry relative="1" as="geometry">
            <Array as="points">
              <mxPoint x="259" y="660" />
            </Array>
          </mxGeometry>
        </mxCell>
        <mxCell id="g4kFXE-WU6tNxtJEIpBs-3" value="John" style="sketch=0;outlineConnect=0;fontColor=#232F3E;gradientColor=none;fillColor=#232F3D;strokeColor=none;dashed=0;verticalLabelPosition=top;verticalAlign=bottom;align=center;html=1;fontSize=16;fontStyle=1;aspect=fixed;pointerEvents=1;shape=mxgraph.aws4.user;labelPosition=center;" vertex="1" parent="1">
          <mxGeometry x="220" y="270" width="78" height="78" as="geometry" />
        </mxCell>
        <mxCell id="g4kFXE-WU6tNxtJEIpBs-13" style="edgeStyle=orthogonalEdgeStyle;rounded=0;orthogonalLoop=1;jettySize=auto;html=1;" edge="1" parent="1" source="g4kFXE-WU6tNxtJEIpBs-5" target="g4kFXE-WU6tNxtJEIpBs-10">
          <mxGeometry relative="1" as="geometry" />
        </mxCell>
        <mxCell id="g4kFXE-WU6tNxtJEIpBs-18" value="" style="edgeStyle=orthogonalEdgeStyle;rounded=0;orthogonalLoop=1;jettySize=auto;html=1;" edge="1" parent="1" source="g4kFXE-WU6tNxtJEIpBs-5" target="g4kFXE-WU6tNxtJEIpBs-10">
          <mxGeometry relative="1" as="geometry" />
        </mxCell>
        <mxCell id="g4kFXE-WU6tNxtJEIpBs-24" style="edgeStyle=orthogonalEdgeStyle;rounded=0;orthogonalLoop=1;jettySize=auto;html=1;endArrow=none;endFill=0;strokeWidth=2;" edge="1" parent="1" source="g4kFXE-WU6tNxtJEIpBs-5" target="g4kFXE-WU6tNxtJEIpBs-23">
          <mxGeometry relative="1" as="geometry" />
        </mxCell>
        <mxCell id="g4kFXE-WU6tNxtJEIpBs-5" value="&lt;span style=&quot;color: rgb(0, 0, 0); text-align: left; text-wrap: wrap;&quot;&gt;Permissions Boundaries&lt;/span&gt;" style="sketch=0;outlineConnect=0;fontColor=#232F3E;gradientColor=none;fillColor=#DD344C;strokeColor=none;dashed=0;verticalLabelPosition=bottom;verticalAlign=top;align=center;html=1;fontSize=16;fontStyle=0;aspect=fixed;pointerEvents=1;shape=mxgraph.aws4.permissions;labelPosition=center;" vertex="1" parent="1">
          <mxGeometry x="429" y="270" width="62" height="78" as="geometry" />
        </mxCell>
        <mxCell id="g4kFXE-WU6tNxtJEIpBs-9" value="" style="sketch=0;points=[[0,0,0],[0.25,0,0],[0.5,0,0],[0.75,0,0],[1,0,0],[0,1,0],[0.25,1,0],[0.5,1,0],[0.75,1,0],[1,1,0],[0,0.25,0],[0,0.5,0],[0,0.75,0],[1,0.25,0],[1,0.5,0],[1,0.75,0]];outlineConnect=0;fontColor=#232F3E;fillColor=#7AA116;strokeColor=#ffffff;dashed=0;verticalLabelPosition=bottom;verticalAlign=top;align=center;html=1;fontSize=12;fontStyle=0;aspect=fixed;shape=mxgraph.aws4.resourceIcon;resIcon=mxgraph.aws4.s3;" vertex="1" parent="1">
          <mxGeometry x="610" y="400" width="78" height="78" as="geometry" />
        </mxCell>
        <mxCell id="g4kFXE-WU6tNxtJEIpBs-10" value="" style="sketch=0;points=[[0,0,0],[0.25,0,0],[0.5,0,0],[0.75,0,0],[1,0,0],[0,1,0],[0.25,1,0],[0.5,1,0],[0.75,1,0],[1,1,0],[0,0.25,0],[0,0.5,0],[0,0.75,0],[1,0.25,0],[1,0.5,0],[1,0.75,0]];points=[[0,0,0],[0.25,0,0],[0.5,0,0],[0.75,0,0],[1,0,0],[0,1,0],[0.25,1,0],[0.5,1,0],[0.75,1,0],[1,1,0],[0,0.25,0],[0,0.5,0],[0,0.75,0],[1,0.25,0],[1,0.5,0],[1,0.75,0]];outlineConnect=0;fontColor=#232F3E;fillColor=#E7157B;strokeColor=#ffffff;dashed=0;verticalLabelPosition=bottom;verticalAlign=top;align=center;html=1;fontSize=12;fontStyle=0;aspect=fixed;shape=mxgraph.aws4.resourceIcon;resIcon=mxgraph.aws4.cloudwatch_2;" vertex="1" parent="1">
          <mxGeometry x="610" y="270" width="78" height="78" as="geometry" />
        </mxCell>
        <mxCell id="g4kFXE-WU6tNxtJEIpBs-11" value="" style="sketch=0;points=[[0,0,0],[0.25,0,0],[0.5,0,0],[0.75,0,0],[1,0,0],[0,1,0],[0.25,1,0],[0.5,1,0],[0.75,1,0],[1,1,0],[0,0.25,0],[0,0.5,0],[0,0.75,0],[1,0.25,0],[1,0.5,0],[1,0.75,0]];outlineConnect=0;fontColor=#232F3E;fillColor=#ED7100;strokeColor=#ffffff;dashed=0;verticalLabelPosition=bottom;verticalAlign=top;align=center;html=1;fontSize=12;fontStyle=0;aspect=fixed;shape=mxgraph.aws4.resourceIcon;resIcon=mxgraph.aws4.ec2;" vertex="1" parent="1">
          <mxGeometry x="610" y="142" width="78" height="78" as="geometry" />
        </mxCell>
        <mxCell id="g4kFXE-WU6tNxtJEIpBs-12" style="edgeStyle=orthogonalEdgeStyle;rounded=0;orthogonalLoop=1;jettySize=auto;html=1;entryX=0;entryY=0.5;entryDx=0;entryDy=0;entryPerimeter=0;" edge="1" parent="1" source="g4kFXE-WU6tNxtJEIpBs-5" target="g4kFXE-WU6tNxtJEIpBs-11">
          <mxGeometry relative="1" as="geometry" />
        </mxCell>
        <mxCell id="g4kFXE-WU6tNxtJEIpBs-14" style="edgeStyle=orthogonalEdgeStyle;rounded=0;orthogonalLoop=1;jettySize=auto;html=1;entryX=0;entryY=0.5;entryDx=0;entryDy=0;entryPerimeter=0;" edge="1" parent="1" source="g4kFXE-WU6tNxtJEIpBs-5" target="g4kFXE-WU6tNxtJEIpBs-9">
          <mxGeometry relative="1" as="geometry" />
        </mxCell>
        <mxCell id="g4kFXE-WU6tNxtJEIpBs-16" value="" style="verticalLabelPosition=bottom;verticalAlign=top;html=1;shape=mxgraph.basic.tick;fillColor=#00CC00;strokeColor=none;" vertex="1" parent="1">
          <mxGeometry x="524" y="275" width="51" height="60" as="geometry" />
        </mxCell>
        <mxCell id="g4kFXE-WU6tNxtJEIpBs-26" style="edgeStyle=orthogonalEdgeStyle;rounded=0;orthogonalLoop=1;jettySize=auto;html=1;" edge="1" parent="1" source="g4kFXE-WU6tNxtJEIpBs-20" target="g4kFXE-WU6tNxtJEIpBs-25">
          <mxGeometry relative="1" as="geometry" />
        </mxCell>
        <mxCell id="g4kFXE-WU6tNxtJEIpBs-27" style="edgeStyle=orthogonalEdgeStyle;rounded=0;orthogonalLoop=1;jettySize=auto;html=1;endArrow=none;endFill=0;strokeWidth=2;" edge="1" parent="1" source="g4kFXE-WU6tNxtJEIpBs-20" target="g4kFXE-WU6tNxtJEIpBs-22">
          <mxGeometry relative="1" as="geometry" />
        </mxCell>
        <mxCell id="g4kFXE-WU6tNxtJEIpBs-20" value="&lt;span style=&quot;color: rgb(0, 0, 0); text-align: left; text-wrap: wrap;&quot;&gt;IAM Permissions &lt;br/&gt;Through IAM Policy&lt;/span&gt;" style="sketch=0;outlineConnect=0;fontColor=#232F3E;gradientColor=none;fillColor=#DD344C;strokeColor=none;dashed=0;verticalLabelPosition=top;verticalAlign=bottom;align=center;html=1;fontSize=16;fontStyle=0;aspect=fixed;pointerEvents=1;shape=mxgraph.aws4.permissions;labelPosition=center;" vertex="1" parent="1">
          <mxGeometry x="425" y="620" width="62" height="78" as="geometry" />
        </mxCell>
        <mxCell id="g4kFXE-WU6tNxtJEIpBs-22" value="&lt;span style=&quot;color: rgb(22, 25, 31); font-family: Monaco, Menlo, Consolas, &amp;quot;Courier Prime&amp;quot;, Courier, &amp;quot;Courier New&amp;quot;, monospace; font-size: 16px; font-style: normal; font-variant-ligatures: normal; font-variant-caps: normal; font-weight: 400; letter-spacing: normal; orphans: 2; text-align: start; text-indent: 0px; text-transform: none; widows: 2; word-spacing: 0px; -webkit-text-stroke-width: 0px; white-space: pre; text-decoration-thickness: initial; text-decoration-style: initial; text-decoration-color: initial;&quot;&gt;{&lt;/span&gt;&lt;span style=&quot;color: rgb(22, 25, 31); font-family: Monaco, Menlo, Consolas, &amp;quot;Courier Prime&amp;quot;, Courier, &amp;quot;Courier New&amp;quot;, monospace; font-size: 16px; font-style: normal; font-variant-ligatures: normal; font-variant-caps: normal; font-weight: 400; letter-spacing: normal; orphans: 2; text-align: start; text-indent: 0px; text-transform: none; widows: 2; word-spacing: 0px; -webkit-text-stroke-width: 0px; white-space: pre; background-color: rgb(249, 249, 249); text-decoration-thickness: initial; text-decoration-style: initial; text-decoration-color: initial; display: inline !important; float: none;&quot;&gt;&#xa;  &lt;/span&gt;&lt;span class=&quot;hljs-attr&quot; style=&quot;color: rgb(152, 104, 1); font-family: Monaco, Menlo, Consolas, &amp;quot;Courier Prime&amp;quot;, Courier, &amp;quot;Courier New&amp;quot;, monospace; font-size: 16px; font-style: normal; font-variant-ligatures: normal; font-variant-caps: normal; font-weight: 400; letter-spacing: normal; orphans: 2; text-align: start; text-indent: 0px; text-transform: none; widows: 2; word-spacing: 0px; -webkit-text-stroke-width: 0px; white-space: pre; text-decoration-thickness: initial; text-decoration-style: initial; text-decoration-color: initial;&quot;&gt;&quot;Version&quot;&lt;/span&gt;&lt;span style=&quot;color: rgb(22, 25, 31); font-family: Monaco, Menlo, Consolas, &amp;quot;Courier Prime&amp;quot;, Courier, &amp;quot;Courier New&amp;quot;, monospace; font-size: 16px; font-style: normal; font-variant-ligatures: normal; font-variant-caps: normal; font-weight: 400; letter-spacing: normal; orphans: 2; text-align: start; text-indent: 0px; text-transform: none; widows: 2; word-spacing: 0px; -webkit-text-stroke-width: 0px; white-space: pre; background-color: rgb(249, 249, 249); text-decoration-thickness: initial; text-decoration-style: initial; text-decoration-color: initial; display: inline !important; float: none;&quot;&gt;: &lt;/span&gt;&lt;span class=&quot;hljs-string&quot; style=&quot;color: rgb(11, 97, 37); font-family: Monaco, Menlo, Consolas, &amp;quot;Courier Prime&amp;quot;, Courier, &amp;quot;Courier New&amp;quot;, monospace; font-size: 16px; font-style: normal; font-variant-ligatures: normal; font-variant-caps: normal; font-weight: 400; letter-spacing: normal; orphans: 2; text-align: start; text-indent: 0px; text-transform: none; widows: 2; word-spacing: 0px; -webkit-text-stroke-width: 0px; white-space: pre; text-decoration-thickness: initial; text-decoration-style: initial; text-decoration-color: initial;&quot;&gt;&quot;2012-10-17&quot;&lt;/span&gt;&lt;span style=&quot;color: rgb(22, 25, 31); font-family: Monaco, Menlo, Consolas, &amp;quot;Courier Prime&amp;quot;, Courier, &amp;quot;Courier New&amp;quot;, monospace; font-size: 16px; font-style: normal; font-variant-ligatures: normal; font-variant-caps: normal; font-weight: 400; letter-spacing: normal; orphans: 2; text-align: start; text-indent: 0px; text-transform: none; widows: 2; word-spacing: 0px; -webkit-text-stroke-width: 0px; white-space: pre; background-color: rgb(249, 249, 249); text-decoration-thickness: initial; text-decoration-style: initial; text-decoration-color: initial; display: inline !important; float: none;&quot;&gt;,&#xa;  &lt;/span&gt;&lt;span class=&quot;hljs-attr&quot; style=&quot;color: rgb(152, 104, 1); font-family: Monaco, Menlo, Consolas, &amp;quot;Courier Prime&amp;quot;, Courier, &amp;quot;Courier New&amp;quot;, monospace; font-size: 16px; font-style: normal; font-variant-ligatures: normal; font-variant-caps: normal; font-weight: 400; letter-spacing: normal; orphans: 2; text-align: start; text-indent: 0px; text-transform: none; widows: 2; word-spacing: 0px; -webkit-text-stroke-width: 0px; white-space: pre; text-decoration-thickness: initial; text-decoration-style: initial; text-decoration-color: initial;&quot;&gt;&quot;Statement&quot;&lt;/span&gt;&lt;span style=&quot;color: rgb(22, 25, 31); font-family: Monaco, Menlo, Consolas, &amp;quot;Courier Prime&amp;quot;, Courier, &amp;quot;Courier New&amp;quot;, monospace; font-size: 16px; font-style: normal; font-variant-ligatures: normal; font-variant-caps: normal; font-weight: 400; letter-spacing: normal; orphans: 2; text-align: start; text-indent: 0px; text-transform: none; widows: 2; word-spacing: 0px; -webkit-text-stroke-width: 0px; white-space: pre; background-color: rgb(249, 249, 249); text-decoration-thickness: initial; text-decoration-style: initial; text-decoration-color: initial; display: inline !important; float: none;&quot;&gt;: &lt;/span&gt;&lt;span style=&quot;color: rgb(22, 25, 31); font-family: Monaco, Menlo, Consolas, &amp;quot;Courier Prime&amp;quot;, Courier, &amp;quot;Courier New&amp;quot;, monospace; font-size: 16px; font-style: normal; font-variant-ligatures: normal; font-variant-caps: normal; font-weight: 400; letter-spacing: normal; orphans: 2; text-align: start; text-indent: 0px; text-transform: none; widows: 2; word-spacing: 0px; -webkit-text-stroke-width: 0px; white-space: pre; text-decoration-thickness: initial; text-decoration-style: initial; text-decoration-color: initial;&quot;&gt;{&lt;/span&gt;&lt;span style=&quot;color: rgb(22, 25, 31); font-family: Monaco, Menlo, Consolas, &amp;quot;Courier Prime&amp;quot;, Courier, &amp;quot;Courier New&amp;quot;, monospace; font-size: 16px; font-style: normal; font-variant-ligatures: normal; font-variant-caps: normal; font-weight: 400; letter-spacing: normal; orphans: 2; text-align: start; text-indent: 0px; text-transform: none; widows: 2; word-spacing: 0px; -webkit-text-stroke-width: 0px; white-space: pre; background-color: rgb(249, 249, 249); text-decoration-thickness: initial; text-decoration-style: initial; text-decoration-color: initial; display: inline !important; float: none;&quot;&gt;&#xa;    &lt;/span&gt;&lt;span class=&quot;hljs-attr&quot; style=&quot;color: rgb(152, 104, 1); font-family: Monaco, Menlo, Consolas, &amp;quot;Courier Prime&amp;quot;, Courier, &amp;quot;Courier New&amp;quot;, monospace; font-size: 16px; font-style: normal; font-variant-ligatures: normal; font-variant-caps: normal; font-weight: 400; letter-spacing: normal; orphans: 2; text-align: start; text-indent: 0px; text-transform: none; widows: 2; word-spacing: 0px; -webkit-text-stroke-width: 0px; white-space: pre; text-decoration-thickness: initial; text-decoration-style: initial; text-decoration-color: initial;&quot;&gt;&quot;Effect&quot;&lt;/span&gt;&lt;span style=&quot;color: rgb(22, 25, 31); font-family: Monaco, Menlo, Consolas, &amp;quot;Courier Prime&amp;quot;, Courier, &amp;quot;Courier New&amp;quot;, monospace; font-size: 16px; font-style: normal; font-variant-ligatures: normal; font-variant-caps: normal; font-weight: 400; letter-spacing: normal; orphans: 2; text-align: start; text-indent: 0px; text-transform: none; widows: 2; word-spacing: 0px; -webkit-text-stroke-width: 0px; white-space: pre; background-color: rgb(249, 249, 249); text-decoration-thickness: initial; text-decoration-style: initial; text-decoration-color: initial; display: inline !important; float: none;&quot;&gt;: &lt;/span&gt;&lt;span class=&quot;hljs-string&quot; style=&quot;color: rgb(11, 97, 37); font-family: Monaco, Menlo, Consolas, &amp;quot;Courier Prime&amp;quot;, Courier, &amp;quot;Courier New&amp;quot;, monospace; font-size: 16px; font-style: normal; font-variant-ligatures: normal; font-variant-caps: normal; font-weight: 400; letter-spacing: normal; orphans: 2; text-align: start; text-indent: 0px; text-transform: none; widows: 2; word-spacing: 0px; -webkit-text-stroke-width: 0px; white-space: pre; text-decoration-thickness: initial; text-decoration-style: initial; text-decoration-color: initial;&quot;&gt;&quot;Allow&quot;&lt;/span&gt;&lt;span style=&quot;color: rgb(22, 25, 31); font-family: Monaco, Menlo, Consolas, &amp;quot;Courier Prime&amp;quot;, Courier, &amp;quot;Courier New&amp;quot;, monospace; font-size: 16px; font-style: normal; font-variant-ligatures: normal; font-variant-caps: normal; font-weight: 400; letter-spacing: normal; orphans: 2; text-align: start; text-indent: 0px; text-transform: none; widows: 2; word-spacing: 0px; -webkit-text-stroke-width: 0px; white-space: pre; background-color: rgb(249, 249, 249); text-decoration-thickness: initial; text-decoration-style: initial; text-decoration-color: initial; display: inline !important; float: none;&quot;&gt;,&#xa;    &lt;/span&gt;&lt;span class=&quot;hljs-attr&quot; style=&quot;color: rgb(152, 104, 1); font-family: Monaco, Menlo, Consolas, &amp;quot;Courier Prime&amp;quot;, Courier, &amp;quot;Courier New&amp;quot;, monospace; font-size: 16px; font-style: normal; font-variant-ligatures: normal; font-variant-caps: normal; font-weight: 400; letter-spacing: normal; orphans: 2; text-align: start; text-indent: 0px; text-transform: none; widows: 2; word-spacing: 0px; -webkit-text-stroke-width: 0px; white-space: pre; text-decoration-thickness: initial; text-decoration-style: initial; text-decoration-color: initial;&quot;&gt;&quot;Action&quot;&lt;/span&gt;&lt;span style=&quot;color: rgb(22, 25, 31); font-family: Monaco, Menlo, Consolas, &amp;quot;Courier Prime&amp;quot;, Courier, &amp;quot;Courier New&amp;quot;, monospace; font-size: 16px; font-style: normal; font-variant-ligatures: normal; font-variant-caps: normal; font-weight: 400; letter-spacing: normal; orphans: 2; text-align: start; text-indent: 0px; text-transform: none; widows: 2; word-spacing: 0px; -webkit-text-stroke-width: 0px; white-space: pre; background-color: rgb(249, 249, 249); text-decoration-thickness: initial; text-decoration-style: initial; text-decoration-color: initial; display: inline !important; float: none;&quot;&gt;: &lt;/span&gt;&lt;span class=&quot;hljs-string&quot; style=&quot;color: rgb(11, 97, 37); font-family: Monaco, Menlo, Consolas, &amp;quot;Courier Prime&amp;quot;, Courier, &amp;quot;Courier New&amp;quot;, monospace; font-size: 16px; font-style: normal; font-variant-ligatures: normal; font-variant-caps: normal; font-weight: 400; letter-spacing: normal; orphans: 2; text-align: start; text-indent: 0px; text-transform: none; widows: 2; word-spacing: 0px; -webkit-text-stroke-width: 0px; white-space: pre; text-decoration-thickness: initial; text-decoration-style: initial; text-decoration-color: initial;&quot;&gt;&quot;iam:CreateUser&quot;&lt;/span&gt;&lt;span style=&quot;color: rgb(22, 25, 31); font-family: Monaco, Menlo, Consolas, &amp;quot;Courier Prime&amp;quot;, Courier, &amp;quot;Courier New&amp;quot;, monospace; font-size: 16px; font-style: normal; font-variant-ligatures: normal; font-variant-caps: normal; font-weight: 400; letter-spacing: normal; orphans: 2; text-align: start; text-indent: 0px; text-transform: none; widows: 2; word-spacing: 0px; -webkit-text-stroke-width: 0px; white-space: pre; background-color: rgb(249, 249, 249); text-decoration-thickness: initial; text-decoration-style: initial; text-decoration-color: initial; display: inline !important; float: none;&quot;&gt;,&#xa;    &lt;/span&gt;&lt;span class=&quot;hljs-attr&quot; style=&quot;color: rgb(152, 104, 1); font-family: Monaco, Menlo, Consolas, &amp;quot;Courier Prime&amp;quot;, Courier, &amp;quot;Courier New&amp;quot;, monospace; font-size: 16px; font-style: normal; font-variant-ligatures: normal; font-variant-caps: normal; font-weight: 400; letter-spacing: normal; orphans: 2; text-align: start; text-indent: 0px; text-transform: none; widows: 2; word-spacing: 0px; -webkit-text-stroke-width: 0px; white-space: pre; text-decoration-thickness: initial; text-decoration-style: initial; text-decoration-color: initial;&quot;&gt;&quot;Resource&quot;&lt;/span&gt;&lt;span style=&quot;color: rgb(22, 25, 31); font-family: Monaco, Menlo, Consolas, &amp;quot;Courier Prime&amp;quot;, Courier, &amp;quot;Courier New&amp;quot;, monospace; font-size: 16px; font-style: normal; font-variant-ligatures: normal; font-variant-caps: normal; font-weight: 400; letter-spacing: normal; orphans: 2; text-align: start; text-indent: 0px; text-transform: none; widows: 2; word-spacing: 0px; -webkit-text-stroke-width: 0px; white-space: pre; background-color: rgb(249, 249, 249); text-decoration-thickness: initial; text-decoration-style: initial; text-decoration-color: initial; display: inline !important; float: none;&quot;&gt;: &lt;/span&gt;&lt;span class=&quot;hljs-string&quot; style=&quot;color: rgb(11, 97, 37); font-family: Monaco, Menlo, Consolas, &amp;quot;Courier Prime&amp;quot;, Courier, &amp;quot;Courier New&amp;quot;, monospace; font-size: 16px; font-style: normal; font-variant-ligatures: normal; font-variant-caps: normal; font-weight: 400; letter-spacing: normal; orphans: 2; text-align: start; text-indent: 0px; text-transform: none; widows: 2; word-spacing: 0px; -webkit-text-stroke-width: 0px; white-space: pre; text-decoration-thickness: initial; text-decoration-style: initial; text-decoration-color: initial;&quot;&gt;&quot;*&quot;&lt;/span&gt;&lt;span style=&quot;color: rgb(22, 25, 31); font-family: Monaco, Menlo, Consolas, &amp;quot;Courier Prime&amp;quot;, Courier, &amp;quot;Courier New&amp;quot;, monospace; font-size: 16px; font-style: normal; font-variant-ligatures: normal; font-variant-caps: normal; font-weight: 400; letter-spacing: normal; orphans: 2; text-align: start; text-indent: 0px; text-transform: none; widows: 2; word-spacing: 0px; -webkit-text-stroke-width: 0px; white-space: pre; background-color: rgb(249, 249, 249); text-decoration-thickness: initial; text-decoration-style: initial; text-decoration-color: initial; display: inline !important; float: none;&quot;&gt;&#xa;  }&#xa;}&lt;/span&gt;" style="text;whiteSpace=wrap;html=1;" vertex="1" parent="1">
          <mxGeometry x="230" y="740" width="330" height="180" as="geometry" />
        </mxCell>
        <mxCell id="g4kFXE-WU6tNxtJEIpBs-23" value="&lt;span style=&quot;color: rgb(22, 25, 31); font-family: Monaco, Menlo, Consolas, &amp;quot;Courier Prime&amp;quot;, Courier, &amp;quot;Courier New&amp;quot;, monospace; font-size: 16px; font-style: normal; font-variant-ligatures: normal; font-variant-caps: normal; font-weight: 400; letter-spacing: normal; orphans: 2; text-align: start; text-indent: 0px; text-transform: none; widows: 2; word-spacing: 0px; -webkit-text-stroke-width: 0px; white-space: pre; text-decoration-thickness: initial; text-decoration-style: initial; text-decoration-color: initial;&quot;&gt;{&lt;/span&gt;&lt;span style=&quot;color: rgb(22, 25, 31); font-family: Monaco, Menlo, Consolas, &amp;quot;Courier Prime&amp;quot;, Courier, &amp;quot;Courier New&amp;quot;, monospace; font-size: 16px; font-style: normal; font-variant-ligatures: normal; font-variant-caps: normal; font-weight: 400; letter-spacing: normal; orphans: 2; text-align: start; text-indent: 0px; text-transform: none; widows: 2; word-spacing: 0px; -webkit-text-stroke-width: 0px; white-space: pre; background-color: rgb(249, 249, 249); text-decoration-thickness: initial; text-decoration-style: initial; text-decoration-color: initial; display: inline !important; float: none;&quot;&gt;&#xa;    &lt;/span&gt;&lt;span class=&quot;hljs-attr&quot; style=&quot;color: rgb(152, 104, 1); font-family: Monaco, Menlo, Consolas, &amp;quot;Courier Prime&amp;quot;, Courier, &amp;quot;Courier New&amp;quot;, monospace; font-size: 16px; font-style: normal; font-variant-ligatures: normal; font-variant-caps: normal; font-weight: 400; letter-spacing: normal; orphans: 2; text-align: start; text-indent: 0px; text-transform: none; widows: 2; word-spacing: 0px; -webkit-text-stroke-width: 0px; white-space: pre; text-decoration-thickness: initial; text-decoration-style: initial; text-decoration-color: initial;&quot;&gt;&quot;Version&quot;&lt;/span&gt;&lt;span style=&quot;color: rgb(22, 25, 31); font-family: Monaco, Menlo, Consolas, &amp;quot;Courier Prime&amp;quot;, Courier, &amp;quot;Courier New&amp;quot;, monospace; font-size: 16px; font-style: normal; font-variant-ligatures: normal; font-variant-caps: normal; font-weight: 400; letter-spacing: normal; orphans: 2; text-align: start; text-indent: 0px; text-transform: none; widows: 2; word-spacing: 0px; -webkit-text-stroke-width: 0px; white-space: pre; background-color: rgb(249, 249, 249); text-decoration-thickness: initial; text-decoration-style: initial; text-decoration-color: initial; display: inline !important; float: none;&quot;&gt;: &lt;/span&gt;&lt;span class=&quot;hljs-string&quot; style=&quot;color: rgb(11, 97, 37); font-family: Monaco, Menlo, Consolas, &amp;quot;Courier Prime&amp;quot;, Courier, &amp;quot;Courier New&amp;quot;, monospace; font-size: 16px; font-style: normal; font-variant-ligatures: normal; font-variant-caps: normal; font-weight: 400; letter-spacing: normal; orphans: 2; text-align: start; text-indent: 0px; text-transform: none; widows: 2; word-spacing: 0px; -webkit-text-stroke-width: 0px; white-space: pre; text-decoration-thickness: initial; text-decoration-style: initial; text-decoration-color: initial;&quot;&gt;&quot;2012-10-17&quot;&lt;/span&gt;&lt;span style=&quot;color: rgb(22, 25, 31); font-family: Monaco, Menlo, Consolas, &amp;quot;Courier Prime&amp;quot;, Courier, &amp;quot;Courier New&amp;quot;, monospace; font-size: 16px; font-style: normal; font-variant-ligatures: normal; font-variant-caps: normal; font-weight: 400; letter-spacing: normal; orphans: 2; text-align: start; text-indent: 0px; text-transform: none; widows: 2; word-spacing: 0px; -webkit-text-stroke-width: 0px; white-space: pre; background-color: rgb(249, 249, 249); text-decoration-thickness: initial; text-decoration-style: initial; text-decoration-color: initial; display: inline !important; float: none;&quot;&gt;,&#xa;    &lt;/span&gt;&lt;span class=&quot;hljs-attr&quot; style=&quot;color: rgb(152, 104, 1); font-family: Monaco, Menlo, Consolas, &amp;quot;Courier Prime&amp;quot;, Courier, &amp;quot;Courier New&amp;quot;, monospace; font-size: 16px; font-style: normal; font-variant-ligatures: normal; font-variant-caps: normal; font-weight: 400; letter-spacing: normal; orphans: 2; text-align: start; text-indent: 0px; text-transform: none; widows: 2; word-spacing: 0px; -webkit-text-stroke-width: 0px; white-space: pre; text-decoration-thickness: initial; text-decoration-style: initial; text-decoration-color: initial;&quot;&gt;&quot;Statement&quot;&lt;/span&gt;&lt;span style=&quot;color: rgb(22, 25, 31); font-family: Monaco, Menlo, Consolas, &amp;quot;Courier Prime&amp;quot;, Courier, &amp;quot;Courier New&amp;quot;, monospace; font-size: 16px; font-style: normal; font-variant-ligatures: normal; font-variant-caps: normal; font-weight: 400; letter-spacing: normal; orphans: 2; text-align: start; text-indent: 0px; text-transform: none; widows: 2; word-spacing: 0px; -webkit-text-stroke-width: 0px; white-space: pre; background-color: rgb(249, 249, 249); text-decoration-thickness: initial; text-decoration-style: initial; text-decoration-color: initial; display: inline !important; float: none;&quot;&gt;: [&#xa;        &lt;/span&gt;&lt;span style=&quot;color: rgb(22, 25, 31); font-family: Monaco, Menlo, Consolas, &amp;quot;Courier Prime&amp;quot;, Courier, &amp;quot;Courier New&amp;quot;, monospace; font-size: 16px; font-style: normal; font-variant-ligatures: normal; font-variant-caps: normal; font-weight: 400; letter-spacing: normal; orphans: 2; text-align: start; text-indent: 0px; text-transform: none; widows: 2; word-spacing: 0px; -webkit-text-stroke-width: 0px; white-space: pre; text-decoration-thickness: initial; text-decoration-style: initial; text-decoration-color: initial;&quot;&gt;{&lt;/span&gt;&lt;span style=&quot;color: rgb(22, 25, 31); font-family: Monaco, Menlo, Consolas, &amp;quot;Courier Prime&amp;quot;, Courier, &amp;quot;Courier New&amp;quot;, monospace; font-size: 16px; font-style: normal; font-variant-ligatures: normal; font-variant-caps: normal; font-weight: 400; letter-spacing: normal; orphans: 2; text-align: start; text-indent: 0px; text-transform: none; widows: 2; word-spacing: 0px; -webkit-text-stroke-width: 0px; white-space: pre; background-color: rgb(249, 249, 249); text-decoration-thickness: initial; text-decoration-style: initial; text-decoration-color: initial; display: inline !important; float: none;&quot;&gt;&#xa;            &lt;/span&gt;&lt;span class=&quot;hljs-attr&quot; style=&quot;color: rgb(152, 104, 1); font-family: Monaco, Menlo, Consolas, &amp;quot;Courier Prime&amp;quot;, Courier, &amp;quot;Courier New&amp;quot;, monospace; font-size: 16px; font-style: normal; font-variant-ligatures: normal; font-variant-caps: normal; font-weight: 400; letter-spacing: normal; orphans: 2; text-align: start; text-indent: 0px; text-transform: none; widows: 2; word-spacing: 0px; -webkit-text-stroke-width: 0px; white-space: pre; text-decoration-thickness: initial; text-decoration-style: initial; text-decoration-color: initial;&quot;&gt;&quot;Effect&quot;&lt;/span&gt;&lt;span style=&quot;color: rgb(22, 25, 31); font-family: Monaco, Menlo, Consolas, &amp;quot;Courier Prime&amp;quot;, Courier, &amp;quot;Courier New&amp;quot;, monospace; font-size: 16px; font-style: normal; font-variant-ligatures: normal; font-variant-caps: normal; font-weight: 400; letter-spacing: normal; orphans: 2; text-align: start; text-indent: 0px; text-transform: none; widows: 2; word-spacing: 0px; -webkit-text-stroke-width: 0px; white-space: pre; background-color: rgb(249, 249, 249); text-decoration-thickness: initial; text-decoration-style: initial; text-decoration-color: initial; display: inline !important; float: none;&quot;&gt;: &lt;/span&gt;&lt;span class=&quot;hljs-string&quot; style=&quot;color: rgb(11, 97, 37); font-family: Monaco, Menlo, Consolas, &amp;quot;Courier Prime&amp;quot;, Courier, &amp;quot;Courier New&amp;quot;, monospace; font-size: 16px; font-style: normal; font-variant-ligatures: normal; font-variant-caps: normal; font-weight: 400; letter-spacing: normal; orphans: 2; text-align: start; text-indent: 0px; text-transform: none; widows: 2; word-spacing: 0px; -webkit-text-stroke-width: 0px; white-space: pre; text-decoration-thickness: initial; text-decoration-style: initial; text-decoration-color: initial;&quot;&gt;&quot;Allow&quot;&lt;/span&gt;&lt;span style=&quot;color: rgb(22, 25, 31); font-family: Monaco, Menlo, Consolas, &amp;quot;Courier Prime&amp;quot;, Courier, &amp;quot;Courier New&amp;quot;, monospace; font-size: 16px; font-style: normal; font-variant-ligatures: normal; font-variant-caps: normal; font-weight: 400; letter-spacing: normal; orphans: 2; text-align: start; text-indent: 0px; text-transform: none; widows: 2; word-spacing: 0px; -webkit-text-stroke-width: 0px; white-space: pre; background-color: rgb(249, 249, 249); text-decoration-thickness: initial; text-decoration-style: initial; text-decoration-color: initial; display: inline !important; float: none;&quot;&gt;,&#xa;            &lt;/span&gt;&lt;span class=&quot;hljs-attr&quot; style=&quot;color: rgb(152, 104, 1); font-family: Monaco, Menlo, Consolas, &amp;quot;Courier Prime&amp;quot;, Courier, &amp;quot;Courier New&amp;quot;, monospace; font-size: 16px; font-style: normal; font-variant-ligatures: normal; font-variant-caps: normal; font-weight: 400; letter-spacing: normal; orphans: 2; text-align: start; text-indent: 0px; text-transform: none; widows: 2; word-spacing: 0px; -webkit-text-stroke-width: 0px; white-space: pre; text-decoration-thickness: initial; text-decoration-style: initial; text-decoration-color: initial;&quot;&gt;&quot;Action&quot;&lt;/span&gt;&lt;span style=&quot;color: rgb(22, 25, 31); font-family: Monaco, Menlo, Consolas, &amp;quot;Courier Prime&amp;quot;, Courier, &amp;quot;Courier New&amp;quot;, monospace; font-size: 16px; font-style: normal; font-variant-ligatures: normal; font-variant-caps: normal; font-weight: 400; letter-spacing: normal; orphans: 2; text-align: start; text-indent: 0px; text-transform: none; widows: 2; word-spacing: 0px; -webkit-text-stroke-width: 0px; white-space: pre; background-color: rgb(249, 249, 249); text-decoration-thickness: initial; text-decoration-style: initial; text-decoration-color: initial; display: inline !important; float: none;&quot;&gt;: [&#xa;                &lt;/span&gt;&lt;span class=&quot;hljs-string&quot; style=&quot;color: rgb(11, 97, 37); font-family: Monaco, Menlo, Consolas, &amp;quot;Courier Prime&amp;quot;, Courier, &amp;quot;Courier New&amp;quot;, monospace; font-size: 16px; font-style: normal; font-variant-ligatures: normal; font-variant-caps: normal; font-weight: 400; letter-spacing: normal; orphans: 2; text-align: start; text-indent: 0px; text-transform: none; widows: 2; word-spacing: 0px; -webkit-text-stroke-width: 0px; white-space: pre; text-decoration-thickness: initial; text-decoration-style: initial; text-decoration-color: initial;&quot;&gt;&quot;s3:*&quot;&lt;/span&gt;&lt;span style=&quot;color: rgb(22, 25, 31); font-family: Monaco, Menlo, Consolas, &amp;quot;Courier Prime&amp;quot;, Courier, &amp;quot;Courier New&amp;quot;, monospace; font-size: 16px; font-style: normal; font-variant-ligatures: normal; font-variant-caps: normal; font-weight: 400; letter-spacing: normal; orphans: 2; text-align: start; text-indent: 0px; text-transform: none; widows: 2; word-spacing: 0px; -webkit-text-stroke-width: 0px; white-space: pre; background-color: rgb(249, 249, 249); text-decoration-thickness: initial; text-decoration-style: initial; text-decoration-color: initial; display: inline !important; float: none;&quot;&gt;,&#xa;                &lt;/span&gt;&lt;span class=&quot;hljs-string&quot; style=&quot;color: rgb(11, 97, 37); font-family: Monaco, Menlo, Consolas, &amp;quot;Courier Prime&amp;quot;, Courier, &amp;quot;Courier New&amp;quot;, monospace; font-size: 16px; font-style: normal; font-variant-ligatures: normal; font-variant-caps: normal; font-weight: 400; letter-spacing: normal; orphans: 2; text-align: start; text-indent: 0px; text-transform: none; widows: 2; word-spacing: 0px; -webkit-text-stroke-width: 0px; white-space: pre; text-decoration-thickness: initial; text-decoration-style: initial; text-decoration-color: initial;&quot;&gt;&quot;cloudwatch:*&quot;&lt;/span&gt;&lt;span style=&quot;color: rgb(22, 25, 31); font-family: Monaco, Menlo, Consolas, &amp;quot;Courier Prime&amp;quot;, Courier, &amp;quot;Courier New&amp;quot;, monospace; font-size: 16px; font-style: normal; font-variant-ligatures: normal; font-variant-caps: normal; font-weight: 400; letter-spacing: normal; orphans: 2; text-align: start; text-indent: 0px; text-transform: none; widows: 2; word-spacing: 0px; -webkit-text-stroke-width: 0px; white-space: pre; background-color: rgb(249, 249, 249); text-decoration-thickness: initial; text-decoration-style: initial; text-decoration-color: initial; display: inline !important; float: none;&quot;&gt;,&#xa;                &lt;/span&gt;&lt;span class=&quot;hljs-string&quot; style=&quot;color: rgb(11, 97, 37); font-family: Monaco, Menlo, Consolas, &amp;quot;Courier Prime&amp;quot;, Courier, &amp;quot;Courier New&amp;quot;, monospace; font-size: 16px; font-style: normal; font-variant-ligatures: normal; font-variant-caps: normal; font-weight: 400; letter-spacing: normal; orphans: 2; text-align: start; text-indent: 0px; text-transform: none; widows: 2; word-spacing: 0px; -webkit-text-stroke-width: 0px; white-space: pre; text-decoration-thickness: initial; text-decoration-style: initial; text-decoration-color: initial;&quot;&gt;&quot;ec2:*&quot;&lt;/span&gt;&lt;span style=&quot;color: rgb(22, 25, 31); font-family: Monaco, Menlo, Consolas, &amp;quot;Courier Prime&amp;quot;, Courier, &amp;quot;Courier New&amp;quot;, monospace; font-size: 16px; font-style: normal; font-variant-ligatures: normal; font-variant-caps: normal; font-weight: 400; letter-spacing: normal; orphans: 2; text-align: start; text-indent: 0px; text-transform: none; widows: 2; word-spacing: 0px; -webkit-text-stroke-width: 0px; white-space: pre; background-color: rgb(249, 249, 249); text-decoration-thickness: initial; text-decoration-style: initial; text-decoration-color: initial; display: inline !important; float: none;&quot;&gt;&#xa;            ],&#xa;            &lt;/span&gt;&lt;span class=&quot;hljs-attr&quot; style=&quot;color: rgb(152, 104, 1); font-family: Monaco, Menlo, Consolas, &amp;quot;Courier Prime&amp;quot;, Courier, &amp;quot;Courier New&amp;quot;, monospace; font-size: 16px; font-style: normal; font-variant-ligatures: normal; font-variant-caps: normal; font-weight: 400; letter-spacing: normal; orphans: 2; text-align: start; text-indent: 0px; text-transform: none; widows: 2; word-spacing: 0px; -webkit-text-stroke-width: 0px; white-space: pre; text-decoration-thickness: initial; text-decoration-style: initial; text-decoration-color: initial;&quot;&gt;&quot;Resource&quot;&lt;/span&gt;&lt;span style=&quot;color: rgb(22, 25, 31); font-family: Monaco, Menlo, Consolas, &amp;quot;Courier Prime&amp;quot;, Courier, &amp;quot;Courier New&amp;quot;, monospace; font-size: 16px; font-style: normal; font-variant-ligatures: normal; font-variant-caps: normal; font-weight: 400; letter-spacing: normal; orphans: 2; text-align: start; text-indent: 0px; text-transform: none; widows: 2; word-spacing: 0px; -webkit-text-stroke-width: 0px; white-space: pre; background-color: rgb(249, 249, 249); text-decoration-thickness: initial; text-decoration-style: initial; text-decoration-color: initial; display: inline !important; float: none;&quot;&gt;: &lt;/span&gt;&lt;span class=&quot;hljs-string&quot; style=&quot;color: rgb(11, 97, 37); font-family: Monaco, Menlo, Consolas, &amp;quot;Courier Prime&amp;quot;, Courier, &amp;quot;Courier New&amp;quot;, monospace; font-size: 16px; font-style: normal; font-variant-ligatures: normal; font-variant-caps: normal; font-weight: 400; letter-spacing: normal; orphans: 2; text-align: start; text-indent: 0px; text-transform: none; widows: 2; word-spacing: 0px; -webkit-text-stroke-width: 0px; white-space: pre; text-decoration-thickness: initial; text-decoration-style: initial; text-decoration-color: initial;&quot;&gt;&quot;*&quot;&lt;/span&gt;&lt;span style=&quot;color: rgb(22, 25, 31); font-family: Monaco, Menlo, Consolas, &amp;quot;Courier Prime&amp;quot;, Courier, &amp;quot;Courier New&amp;quot;, monospace; font-size: 16px; font-style: normal; font-variant-ligatures: normal; font-variant-caps: normal; font-weight: 400; letter-spacing: normal; orphans: 2; text-align: start; text-indent: 0px; text-transform: none; widows: 2; word-spacing: 0px; -webkit-text-stroke-width: 0px; white-space: pre; background-color: rgb(249, 249, 249); text-decoration-thickness: initial; text-decoration-style: initial; text-decoration-color: initial; display: inline !important; float: none;&quot;&gt;&#xa;        }&#xa;    ]&#xa;}&lt;/span&gt;" style="text;whiteSpace=wrap;html=1;" vertex="1" parent="1">
          <mxGeometry x="200" y="-100" width="330" height="290" as="geometry" />
        </mxCell>
        <mxCell id="g4kFXE-WU6tNxtJEIpBs-25" value="" style="sketch=0;points=[[0,0,0],[0.25,0,0],[0.5,0,0],[0.75,0,0],[1,0,0],[0,1,0],[0.25,1,0],[0.5,1,0],[0.75,1,0],[1,1,0],[0,0.25,0],[0,0.5,0],[0,0.75,0],[1,0.25,0],[1,0.5,0],[1,0.75,0]];outlineConnect=0;fontColor=#232F3E;fillColor=#DD344C;strokeColor=#ffffff;dashed=0;verticalLabelPosition=bottom;verticalAlign=top;align=center;html=1;fontSize=12;fontStyle=0;aspect=fixed;shape=mxgraph.aws4.resourceIcon;resIcon=mxgraph.aws4.identity_and_access_management;" vertex="1" parent="1">
          <mxGeometry x="600" y="620" width="78" height="78" as="geometry" />
        </mxCell>
        <mxCell id="g4kFXE-WU6tNxtJEIpBs-28" value="" style="verticalLabelPosition=bottom;verticalAlign=top;html=1;shape=mxgraph.basic.x;strokeColor=none;fillColor=#FF0000;" vertex="1" parent="1">
          <mxGeometry x="520" y="634" width="50" height="50" as="geometry" />
        </mxCell>
      </root>
    </mxGraphModel>
  </diagram>
</mxfile>
